<svg fill="none" xmlns="http://www.w3.org/2000/svg" viewBox="0 0 24 25" class="design-iconfont">
  <path d="M10.679 10.0698C7.7347 9.92778 5.6881 10.9775 4.53919 13.2191C2.81585 16.5814 4.24013 22.0832 9.9894 22.0832C15.7387 22.0832 15.905 16.5276 15.905 15.9456C15.905 15.5576 15.905 13.3881 15.905 9.43718C17.1347 10.216 18.1715 10.6849 19.0154 10.8437C19.8593 11.0025 20.3958 11.0729 20.6249 11.0549V7.81703C19.8443 7.72293 19.1693 7.54353 18.5999 7.27893C17.7457 6.88203 16.0519 5.78043 16.0519 4.16592C16.053 4.17381 16.053 3.75734 16.0519 2.9165H12.4929C12.4823 10.8245 12.4823 15.1675 12.4929 15.9456C12.5088 17.1126 11.6034 18.7451 9.76775 18.7451C7.9321 18.7451 7.02675 17.1139 7.02675 16.0618C7.02675 15.4177 7.248 14.4841 8.16255 13.7928C8.7049 13.3828 9.45765 13.2191 10.679 13.2191C10.679 12.8413 10.679 11.7915 10.679 10.0698Z" fill="#fff" stroke="#fff" stroke-width="2" stroke-linejoin="round"/>
</svg>
