<svg fill="none" xmlns="http://www.w3.org/2000/svg" viewBox="0 0 24 24" class="design-iconfont">
  <path d="M8.49814 3.84277C8.86144 3.84277 9.19614 4.03978 9.37249 4.3574L10.5957 6.56081C10.7558 6.84931 10.7634 7.19826 10.6158 7.49341L9.43739 9.85026C9.43739 9.85026 9.77889 11.606 11.2081 13.0352C12.6373 14.4644 14.3871 14.8 14.3871 14.8L16.7436 13.6218C17.0389 13.4741 17.3881 13.4817 17.6767 13.6422L19.8864 14.8707C20.2037 15.0471 20.4005 15.3816 20.4005 15.7447V18.2814C20.4005 19.5733 19.2005 20.5063 17.9765 20.0933C15.4625 19.245 11.5602 17.6299 9.08679 15.1565C6.61334 12.6831 4.99824 8.78071 4.14997 6.26676C3.73696 5.04271 4.67001 3.84277 5.96184 3.84277H8.49814Z" fill="#fff" stroke="#fff" stroke-width="1.33333" stroke-linejoin="round"/>
</svg>
