<svg fill="none" xmlns="http://www.w3.org/2000/svg" viewBox="0 0 24 25" class="design-iconfont">
  <path fill-rule="evenodd" clip-rule="evenodd" d="M18.4987 11.3556C18.4217 7.00395 14.8701 3.5 10.5 3.5C6.0817 3.5 2.5 7.0817 2.5 11.5C2.5 13.5851 3.29765 15.4838 4.60446 16.9077L4.00522 20.5128L7.5625 18.9849C9.12985 19.5061 10.609 19.6364 12 19.3758" fill="#fff"/>
  <path d="M18.4987 11.3556C18.4217 7.00395 14.87 3.5 10.5 3.5C6.0817 3.5 2.5 7.0817 2.5 11.5C2.5 13.5851 3.29765 15.4838 4.60446 16.9077L4.00522 20.5128L7.5625 18.9849C9.12985 19.5061 10.609 19.6364 12 19.3758" stroke="#fff" stroke-width="3" stroke-linecap="round" stroke-linejoin="round"/>
  <path d="M7.5625 10.7335C8.1838 10.7335 8.6875 10.2261 8.6875 9.60015C8.6875 8.97425 8.1838 8.4668 7.5625 8.4668C6.9412 8.4668 6.4375 8.97425 6.4375 9.60015C6.4375 10.2261 6.9412 10.7335 7.5625 10.7335Z" fill="#6CC4AA"/>
  <path d="M12.0625 10.7335C12.6838 10.7335 13.1875 10.2261 13.1875 9.60015C13.1875 8.97425 12.6838 8.4668 12.0625 8.4668C11.4412 8.4668 10.9375 8.97425 10.9375 9.60015C10.9375 10.2261 11.4412 10.7335 12.0625 10.7335Z" fill="#6CC4AA"/>
  <path fill-rule="evenodd" clip-rule="evenodd" d="M19.3809 20.4646C18.5067 21.1151 17.4233 21.5 16.25 21.5C13.3505 21.5 11 19.1495 11 16.25C11 13.3505 13.3505 11 16.25 11C19.1495 11 21.5 13.3505 21.5 16.25C21.5 17.0498 21.3211 17.808 21.0012 18.4864" fill="#fff"/>
  <path d="M19.3809 20.4646C18.5067 21.1151 17.4233 21.5 16.25 21.5C13.3505 21.5 11 19.1495 11 16.25C11 13.3505 13.3505 11 16.25 11C19.1495 11 21.5 13.3505 21.5 16.25C21.5 17.0498 21.3211 17.808 21.0012 18.4864" stroke="#fff" stroke-width="3" stroke-linecap="round" stroke-linejoin="round"/>
  <path fill-rule="evenodd" clip-rule="evenodd" d="M21.0012 18.4863L21.5 21.4999L19.3809 20.4646" fill="#fff"/>
  <path d="M21.0012 18.4863L21.5 21.4999L19.3809 20.4646" stroke="#fff" stroke-width="3" stroke-linecap="round" stroke-linejoin="round"/>
  <path d="M17.8438 15.8997C17.3778 15.8997 17 15.5192 17 15.0497C17 14.5803 17.3778 14.1997 17.8438 14.1997C18.3097 14.1997 18.6875 14.5803 18.6875 15.0497C18.6875 15.5192 18.3097 15.8997 17.8438 15.8997Z" fill="#6CC4AA"/>
  <path d="M14.4688 15.8997C14.0028 15.8997 13.625 15.5192 13.625 15.0497C13.625 14.5803 14.0028 14.1997 14.4688 14.1997C14.9347 14.1997 15.3125 14.5803 15.3125 15.0497C15.3125 15.5192 14.9347 15.8997 14.4688 15.8997Z" fill="#6CC4AA"/>
</svg>
